<?xml version="1.0" encoding="utf-8"?>
<!-- Svg Vector Icons : http://www.onlinewebfonts.com/icon -->
<!DOCTYPE svg PUBLIC "-//W3C//DTD SVG 1.1//EN" "http://www.w3.org/Graphics/SVG/1.1/DTD/svg11.dtd">
<svg version="1.1" xmlns="http://www.w3.org/2000/svg" xmlns:xlink="http://www.w3.org/1999/xlink" x="0px" y="0px" viewBox="0 0 1000 1000" enable-background="new 0 0 1000 1000" xml:space="preserve">
<metadata> Svg Vector Icons : http://www.onlinewebfonts.com/icon </metadata>
<g><g transform="translate(0.000000,511.000000) scale(0.100000,-0.100000)"><path d="M361.9,4967.1c-102.3-49-189.7-142.8-234.4-247.2c-38.4-91.6-36.2-287.7,4.3-385.7c23.4-55.4,445.4-492.3,1385.2-1432.1c743.8-743.8,1353.3-1359.7,1353.3-1366.1c0-8.5-328.2-14.9-726.7-14.9c-694.8-2.1-733.1-6.4-820.5-49c-183.3-87.4-272.8-249.3-260-468.8c12.8-236.6,157.7-398.5,398.5-445.4c153.4-27.7,2536-27.7,2689.5,0c142.8,27.7,257.9,102.3,332.5,217.4l59.7,89.5v1440.7V3746l-59.7,89.5c-93.8,142.8-206.7,204.6-385.7,213.1c-127.9,6.4-166.2,0-247.2-44.7c-123.6-66.1-223.8-198.2-253.6-334.6c-14.9-66.1-23.4-372.9-23.4-773.6v-664.9L2213.9,3588.3c-944.1,944.1-1381,1368.2-1436.4,1391.6C662.4,5026.8,470.6,5020.4,361.9,4967.1z"/><path d="M5736.6-367.1C5630.1-414,5529.9-512,5483-614.3c-42.6-93.8-44.7-127.9-51.2-1404.4c-4.2-901.5,2.1-1344.7,17.1-1423.6c29.8-142.8,127.9-274.9,253.6-341c187.5-98,458.2-49,590.3,106.6c117.2,138.5,119.3,159.8,117.2,888.7c0,368.7,6.4,694.7,12.8,720.3c10.7,44.7,168.4-106.6,1378.9-1312.8c1097.5-1095.4,1383.1-1368.2,1447-1389.5c132.2-42.6,334.6-19.2,439,49c132.1,87.4,200.3,206.7,211,366.6c4.3,74.6-2.1,170.5-17,217.4c-21.3,63.9-294.1,349.5-1391.6,1451.3L7121.9-1317.6h664.9c400.7,0,707.6,8.5,773.6,23.4c136.4,29.8,268.5,130,334.6,253.6c44.7,81,51.2,119.3,44.7,247.2c-8.5,179-70.3,292-213.1,385.8l-89.5,59.7l-1417.2,4.3C6081.9-339.4,5787.8-343.6,5736.6-367.1z"/></g></g>
</svg>