<?xml version="1.0" encoding="utf-8"?>
<!-- Svg Vector Icons : http://www.onlinewebfonts.com/icon -->
<!DOCTYPE svg PUBLIC "-//W3C//DTD SVG 1.1//EN" "http://www.w3.org/Graphics/SVG/1.1/DTD/svg11.dtd">
<svg version="1.1" xmlns="http://www.w3.org/2000/svg" xmlns:xlink="http://www.w3.org/1999/xlink" x="0px" y="0px" viewBox="0 0 1000 1000" enable-background="new 0 0 1000 1000" xml:space="preserve">
<metadata> Svg Vector Icons : http://www.onlinewebfonts.com/icon </metadata>
<g><path d="M753.5,911.7c-13,0-25.7-6.2-33.6-17.7c-12.7-18.6-8-43.9,10.6-56.5C842,761.2,908.6,635,908.6,500.1c0-81.9-24.1-160.9-69.8-228.5c-12.6-18.6-7.7-43.9,11-56.5c18.6-12.6,43.9-7.7,56.5,11C961,307.1,990,401.8,990,500c0,161.8-79.8,313.1-213.5,404.6C769.4,909.4,761.4,911.7,753.5,911.7z M500,990C229.8,990,10,770.2,10,500S229.8,10,500,10c22.5,0,40.7,18.2,40.7,40.7c0,22.5-18.2,40.7-40.7,40.7C274.7,91.4,91.4,274.7,91.4,500S274.7,908.6,500,908.6c22.5,0,40.7,18.2,40.7,40.7S522.5,990,500,990z M460.5,370.5h-217c-22.5,0-40.7-18.2-40.7-40.7c0-22.5,18.2-40.7,40.7-40.7h217c22.5,0,40.7,18.2,40.7,40.7C501.2,352.3,483,370.5,460.5,370.5z M460.5,546h-217c-22.5,0-40.7-18.2-40.7-40.7c0-22.5,18.2-40.7,40.7-40.7h217c22.5,0,40.7,18.2,40.7,40.7C501.2,527.8,483,546,460.5,546z M745.3,719.9H243.5c-22.5,0-40.7-18.2-40.7-40.7c0-22.5,18.2-40.7,40.7-40.7h501.9c22.5,0,40.7,18.2,40.7,40.7C786,701.6,767.8,719.9,745.3,719.9z M614.2,559.6c-5,0-10-0.7-14.9-2.1c-28.8-8.3-45.5-38.3-37.2-67.1L682.4,60.2c8.3-28.8,38.3-45.4,67.1-37.2c28.8,8.3,45.4,38.3,37.2,67.1L666.4,520.2C659.6,544.1,637.8,559.6,614.2,559.6z"/></g>
</svg>