<?xml version="1.0" encoding="utf-8"?>
<!-- Svg Vector Icons : http://www.onlinewebfonts.com/icon -->
<!DOCTYPE svg PUBLIC "-//W3C//DTD SVG 1.1//EN" "http://www.w3.org/Graphics/SVG/1.1/DTD/svg11.dtd">
<svg version="1.1" xmlns="http://www.w3.org/2000/svg" xmlns:xlink="http://www.w3.org/1999/xlink" x="0px" y="0px" viewBox="0 0 1000 1000" enable-background="new 0 0 1000 1000" xml:space="preserve">
<metadata> Svg Vector Icons : http://www.onlinewebfonts.com/icon </metadata>
<g><g transform="translate(0.000000,511.000000) scale(0.100000,-0.100000)"><path d="M341,4951.3c-83.2-46.9-130.1-93.8-177-177l-64-110.9V3247.3c0-1394.8,0-1418.3,44.8-1510c57.6-119.4,172.8-213.3,311.4-253.8c226.1-66.1,464.9,40.5,569.4,251.7l55.4,110.9v731.5c0,403.1,6.4,731.5,14.9,731.5c8.5,0,639.8-622.8,1403.3-1384.2C3977.3,449.1,3926.2,493.9,4128.8,493.9c264.5,0,492.7,228.2,492.7,492.7c0,202.6,44.8,151.4-1431.1,1629.4C2429,3379.5,1806.2,4010.8,1806.2,4019.3c0,8.5,328.4,14.9,731.5,14.9h731.5l110.9,55.4c134.4,66.1,228.2,192,262.3,347.6c44.8,206.9-72.5,439.3-264.5,533.2c-91.7,44.8-115.2,44.8-1510,44.8H451.9L341,4951.3z"/><path d="M5696.3-303.8c-100.2-44.8-223.9-164.2-266.6-258.1c-51.2-113-51.2-294.3,0-405.2c27.7-57.6,479.9-524.6,1407.6-1450.3c752.9-750.7,1367.1-1371.4,1367.1-1379.9c0-10.7-328.5-17.1-731.5-17.1h-731.5l-113.1-55.4c-136.5-68.3-226.1-183.4-260.2-337c-46.9-211.1,68.2-450,264.5-543.8c91.7-44.8,115.2-44.8,1501.5-44.8h1409.7l113,59.7c83.2,42.6,132.2,87.5,179.2,164.2l64,102.4v1454.5v1452.4l-59.7,91.7c-213.3,322-684.6,296.4-855.2-44.8l-55.4-110.9v-731.5c0-403.1-6.4-731.5-17.1-731.5c-8.5,0-629.2,614.2-1379.9,1367.1C6607-794.3,6140-342.1,6082.4-314.4C5982.1-267.5,5792.3-263.2,5696.3-303.8z"/></g></g>
</svg>